<svg width="290" height="217" viewBox="0 0 290 217" fill="none" xmlns="http://www.w3.org/2000/svg">
<g clip-path="url(#clip0_3335_4744)">
<path d="M288.206 14.0329H103.334C103.142 14.0286 102.959 13.9493 102.824 13.8119C102.69 13.6745 102.615 13.4899 102.615 13.2977C102.615 13.1055 102.69 12.9209 102.824 12.7835C102.959 12.6461 103.142 12.5668 103.334 12.5625H288.206C288.398 12.5668 288.581 12.6461 288.716 12.7835C288.85 12.9209 288.925 13.1055 288.925 13.2977C288.925 13.4899 288.85 13.6745 288.716 13.8119C288.581 13.9493 288.398 14.0286 288.206 14.0329V14.0329Z" fill="#E6E6E6"/>
<path d="M115.918 8.8091C118.297 8.8091 120.226 6.83712 120.226 4.40455C120.226 1.97198 118.297 0 115.918 0C113.538 0 111.609 1.97198 111.609 4.40455C111.609 6.83712 113.538 8.8091 115.918 8.8091Z" fill="#3F3D56"/>
<path d="M130.803 8.8091C133.182 8.8091 135.111 6.83712 135.111 4.40455C135.111 1.97198 133.182 0 130.803 0C128.423 0 126.494 1.97198 126.494 4.40455C126.494 6.83712 128.423 8.8091 130.803 8.8091Z" fill="#3F3D56"/>
<path d="M145.686 8.8091C148.066 8.8091 149.995 6.83712 149.995 4.40455C149.995 1.97198 148.066 0 145.686 0C143.307 0 141.378 1.97198 141.378 4.40455C141.378 6.83712 143.307 8.8091 145.686 8.8091Z" fill="#3F3D56"/>
<path d="M279.243 1.08887H268.672C268.463 1.09361 268.264 1.17999 268.118 1.32953C267.971 1.47906 267.89 1.67987 267.89 1.88898C267.89 2.09809 267.971 2.2989 268.118 2.44843C268.264 2.59797 268.463 2.68434 268.672 2.68909H279.243C279.454 2.68626 279.654 2.60073 279.802 2.45098C279.95 2.30124 280.033 2.09934 280.033 1.88898C280.033 1.67862 279.95 1.47672 279.802 1.32698C279.654 1.17723 279.454 1.09169 279.243 1.08887V1.08887Z" fill="#3F3D56"/>
<path d="M279.244 4.09375H268.672C268.463 4.0984 268.264 4.18473 268.118 4.33427C267.972 4.48381 267.89 4.68466 267.89 4.89383C267.89 5.103 267.972 5.30386 268.118 5.4534C268.264 5.60294 268.463 5.68927 268.672 5.69392H279.244C279.454 5.69106 279.655 5.60551 279.802 5.45577C279.95 5.30604 280.033 5.10416 280.033 4.89383C280.033 4.6835 279.95 4.48162 279.802 4.33189C279.655 4.18216 279.454 4.09661 279.244 4.09375V4.09375Z" fill="#3F3D56"/>
<path d="M279.243 7.09863H268.672C268.463 7.10338 268.264 7.18975 268.118 7.33929C267.971 7.48882 267.89 7.68963 267.89 7.89874C267.89 8.10785 267.971 8.30866 268.118 8.45819C268.264 8.60773 268.463 8.69411 268.672 8.69885H279.243C279.454 8.69603 279.654 8.61049 279.802 8.46074C279.95 8.311 280.033 8.1091 280.033 7.89874C280.033 7.68838 279.95 7.48648 279.802 7.33674C279.654 7.18699 279.454 7.10146 279.243 7.09863V7.09863Z" fill="#3F3D56"/>
<path d="M135.891 89.5825H210.478C210.569 89.5825 210.656 89.6187 210.721 89.6831C210.785 89.7475 210.821 89.8348 210.821 89.9258V133.295C210.821 133.386 210.785 133.474 210.721 133.538C210.656 133.603 210.569 133.639 210.478 133.639H135.891V89.5825Z" fill="#E6E6E6"/>
<path d="M210.39 133.873L135.792 89.9149L135.989 89.2495L210.586 133.207C210.675 133.233 210.749 133.294 210.793 133.374C210.837 133.455 210.847 133.55 210.821 133.638V133.638C210.808 133.682 210.787 133.723 210.758 133.758C210.729 133.794 210.694 133.823 210.654 133.845C210.614 133.867 210.57 133.88 210.525 133.885C210.479 133.89 210.434 133.886 210.39 133.873V133.873Z" fill="white"/>
<path d="M135.989 133.971L135.792 133.306L210.39 89.3482C210.434 89.3353 210.479 89.3311 210.525 89.3359C210.57 89.3407 210.614 89.3544 210.654 89.3762C210.694 89.3979 210.729 89.4274 210.758 89.4628C210.787 89.4982 210.808 89.5389 210.821 89.5826V89.5826C210.847 89.6708 210.837 89.7658 210.793 89.8466C210.749 89.9274 210.675 89.9875 210.586 90.0135L135.989 133.971Z" fill="white"/>
<path d="M202.008 46.1973H144.623C143.726 46.1973 142.999 46.9244 142.999 47.8213V47.8213C142.999 48.7183 143.726 49.4454 144.623 49.4454H202.008C202.905 49.4454 203.632 48.7183 203.632 47.8213C203.632 46.9244 202.905 46.1973 202.008 46.1973Z" fill="#E6E6E6"/>
<path d="M209.721 56.3359H136.907C136.01 56.3359 135.283 57.0631 135.283 57.96C135.283 58.857 136.01 59.5841 136.907 59.5841H209.721C210.618 59.5841 211.345 58.857 211.345 57.96C211.345 57.0631 210.618 56.3359 209.721 56.3359Z" fill="#E6E6E6"/>
<path d="M209.721 66.4746H136.907C136.01 66.4746 135.283 67.2017 135.283 68.0987C135.283 68.9956 136.01 69.7228 136.907 69.7228H209.721C210.618 69.7228 211.345 68.9956 211.345 68.0987C211.345 67.2017 210.618 66.4746 209.721 66.4746Z" fill="#6C63FF"/>
<path d="M278.769 100.701C278.766 106.818 276.863 112.784 273.323 117.773C269.783 122.763 264.781 126.529 259.007 128.553C258.756 128.643 258.505 128.725 258.251 128.804C252.322 130.699 245.946 130.671 240.035 128.723C234.124 126.775 228.98 123.008 225.339 117.96C221.699 112.911 219.748 106.841 219.766 100.617C219.784 94.3932 221.771 88.3344 225.441 83.3076C229.111 78.2808 234.277 74.5435 240.199 72.6304C246.122 70.7173 252.498 70.7263 258.415 72.6563C264.332 74.5862 269.488 78.3381 273.144 83.3753C276.799 88.4125 278.768 94.4769 278.769 100.701V100.701Z" fill="#E6E6E6"/>
<path d="M209.709 70.3744C209.677 70.7364 209.725 71.1008 209.85 71.4421C209.975 71.7834 210.173 72.0931 210.43 72.3496C210.687 72.6061 210.998 72.8031 211.34 72.9266C211.681 73.0501 212.046 73.0972 212.408 73.0646L216.041 81.1146L218.493 77.2357L214.668 70.1859C214.572 69.5816 214.259 69.0332 213.787 68.6446C213.314 68.2561 212.716 68.0543 212.104 68.0775C211.493 68.1007 210.912 68.3474 210.47 68.7707C210.028 69.194 209.758 69.7646 209.709 70.3744Z" fill="#FFB6B6"/>
<path d="M245.51 100.69C245.457 100.452 245.389 100.218 245.307 99.9883C244.787 98.5087 243.726 97.2805 242.339 96.5495C242.306 96.5304 242.27 96.5113 242.237 96.4949L225.642 88.0741L224.169 85.2034L218.221 73.6143L216.762 74.0486L213.315 75.0728L213.236 75.0947L218.95 94.3235L220.261 95.3286L235.111 106.686L235.595 107.057C236.788 107.968 238.27 108.421 239.769 108.333C241.268 108.245 242.686 107.621 243.764 106.576C243.987 106.363 244.192 106.133 244.379 105.888C244.938 105.158 245.329 104.314 245.525 103.415C245.72 102.517 245.715 101.586 245.51 100.69V100.69Z" fill="#6C63FF"/>
<path d="M254.736 121.809L254.648 118.641L254.397 109.452C255.307 103.572 255.951 102.919 251.565 98.8985C251.397 98.8625 251.239 98.792 251.1 98.6913C250.961 98.5907 250.845 98.4622 250.759 98.314C250.36 97.5 251.319 96.118 250.491 93.9902L243.961 94.3644L242.338 96.5495L235.81 105.345C235.554 105.779 235.321 106.227 235.111 106.686C232.317 112.755 236.105 115.98 236.4 116.535L238.208 122.23L239.205 127.753L239.528 128.52L240.437 128.853C246.239 130.665 252.459 130.648 258.251 128.804C257.276 126.379 256.1 124.039 254.736 121.809V121.809Z" fill="#6C63FF"/>
<path d="M267.385 144.146C267.532 143.814 267.606 143.454 267.599 143.09C267.593 142.727 267.507 142.37 267.348 142.043C267.188 141.717 266.959 141.429 266.676 141.201C266.394 140.973 266.064 140.809 265.712 140.722L264.906 131.927L261.321 134.792L262.636 142.705C262.528 143.307 262.646 143.928 262.965 144.449C263.285 144.971 263.785 145.357 264.37 145.535C264.955 145.712 265.586 145.669 266.141 145.413C266.697 145.157 267.139 144.706 267.385 144.146L267.385 144.146Z" fill="#FFB6B6"/>
<path d="M254.894 101.02C254.426 100.311 253.817 99.7056 253.106 99.2402C252.395 98.7747 251.596 98.4595 250.759 98.3137C250.397 98.2481 250.029 98.2152 249.661 98.2153C248.434 98.2155 247.234 98.5775 246.211 99.256C245.887 99.4701 245.584 99.7152 245.307 99.988C244.717 100.56 244.245 101.242 243.918 101.997C243.592 102.751 243.417 103.562 243.404 104.384C243.391 105.206 243.54 106.022 243.843 106.786C244.146 107.55 244.596 108.247 245.168 108.838L254.648 118.64L258.104 122.213L259.008 128.553L260.398 138.306L261.917 138.372L265.511 138.53L265.593 138.533L266.191 124.865L266.47 118.493L254.894 101.02Z" fill="#6C63FF"/>
<path d="M241.939 78.9975C239.63 83.5483 241.138 88.8197 245.422 91.5917C250.056 94.5892 256.071 93.9328 258.017 88.1077C260.183 81.6209 258.403 78.8381 254.533 75.5135C249.997 71.6175 244.433 74.0804 241.939 78.9975Z" fill="#2F2E41"/>
<path d="M253.305 89.1353C252.13 90.6756 250.391 91.6862 248.471 91.9452C246.551 92.2042 244.607 91.6904 243.065 90.5167C241.524 89.3429 240.511 87.6052 240.25 85.6854C239.989 83.7656 240.501 81.8207 241.673 80.278L241.737 80.1947C242.934 78.6959 244.673 77.7278 246.577 77.4993C248.482 77.2708 250.4 77.8002 251.918 78.9733C253.436 80.1464 254.432 81.8692 254.691 83.77C254.95 85.6708 254.452 87.5973 253.304 89.134L253.305 89.1353Z" fill="#FFB6B6"/>
<path d="M239.702 78.2608C240.89 79.3912 242.338 80.2118 243.918 80.6499C244.235 80.2835 244.61 79.9723 245.029 79.7291C244.829 80.1463 244.691 80.5909 244.622 81.0485C245.326 82.5113 248.205 83.5626 250.956 84.638L254.6 78.2067L249.777 75.4736C245.901 72.7941 241.339 73.9377 239.702 78.2608Z" fill="#2F2E41"/>
<path d="M257.349 75.5219C257.701 75.3922 258.079 75.3527 258.45 75.4069C258.821 75.4611 259.173 75.6072 259.473 75.832C260.06 76.2784 260.535 76.8559 260.859 77.5184C261.449 78.5902 261.873 79.7454 262.116 80.9445C262.324 81.9818 262.289 83.236 261.359 83.7773C260.582 84.229 259.472 83.9446 258.758 83.3418C258.096 82.7093 257.594 81.9287 257.294 81.0643C256.945 80.2371 256.616 79.3793 255.997 78.6923L256.64 78.9925C256.437 78.3754 256.342 77.7278 256.36 77.0783C256.375 76.7552 256.474 76.4415 256.647 76.1684C256.821 75.8954 257.063 75.6725 257.349 75.5219Z" fill="#2F2E41"/>
<path d="M249.006 76.3647L254.181 79.2969C255.58 80.0898 256.607 81.406 257.036 82.9561C257.465 84.5062 257.26 86.1632 256.468 87.5624V87.5624C255.313 89.6003 253.439 91.1343 251.214 91.8647C248.988 92.5951 246.57 92.4694 244.432 91.5122L249.161 87.3378L242.746 90.6062L241.376 89.8302C248.256 88.5793 249.583 83.1828 249.006 76.3647Z" fill="#2F2E41"/>
<path d="M258.781 81.5177C259.652 82.5316 261.016 82.9258 262.246 83.4534C264.417 84.4058 266.323 85.8733 267.798 87.7288C269.274 89.5842 270.274 91.7716 270.713 94.1012C271.053 95.9987 271.009 97.963 271.546 99.8129C272.08 101.663 273.402 103.478 275.3 103.799C276.584 104.018 277.871 103.522 279.079 103.033C279.743 102.766 280.408 102.498 281.072 102.229C280.379 100.49 279.687 98.7513 278.996 97.0127C280.107 98.6534 281.398 100.164 282.846 101.517C285.226 100.557 287.609 99.5967 289.994 98.6368C284.126 98.6591 285.128 92.9633 283.815 87.2485C283.093 84.1082 276.949 81.9818 275.745 78.994C275.094 77.3735 273.992 75.9734 272.571 74.9593C271.149 73.9453 269.466 73.3599 267.722 73.2723C265.978 73.1846 264.245 73.5985 262.729 74.465C261.212 75.3314 259.976 76.6141 259.166 78.1613C257.961 78.6412 257.926 80.5165 258.781 81.5177Z" fill="#2F2E41"/>
<path d="M88.3405 136.537C88.0522 136.172 87.8466 135.748 87.738 135.296C87.6294 134.844 87.6204 134.373 87.7115 133.917C87.8026 133.461 87.9918 133.03 88.2658 132.654C88.5398 132.278 88.8922 131.966 89.2987 131.74L87.623 115.82L91.9126 114.273L93.7645 133.197C94.0945 133.909 94.1517 134.718 93.9253 135.47C93.6989 136.222 93.2045 136.864 92.5359 137.276C91.8674 137.688 91.071 137.84 90.2977 137.703C89.5245 137.567 88.8281 137.152 88.3405 136.537Z" fill="#FFB6B6"/>
<path d="M86.0475 78.168C86.0475 78.168 93.0111 81.5656 93.0337 85.5599C93.0563 89.5543 93.6331 93.167 93.0881 94.7125C92.5432 96.258 94.473 107.492 93.5696 108.604C92.6663 109.717 94.5274 110.286 93.5494 112.19C92.5715 114.094 92.1385 114.452 92.4968 114.885C92.8552 115.318 93.3817 123.572 93.3817 123.572L87.6436 124.289L81.5396 97.6505L86.0475 78.168Z" fill="#3F3D56"/>
<path d="M52.9303 138.154C53.2725 137.839 53.5423 137.453 53.7208 137.024C53.8994 136.594 53.9825 136.131 53.9645 135.666C53.9464 135.201 53.8276 134.746 53.6162 134.332C53.4049 133.917 53.1061 133.554 52.7404 133.266L56.9052 117.809L52.9131 115.606L48.1007 134.001C47.6625 134.652 47.4785 135.442 47.5835 136.22C47.6886 136.998 48.0755 137.71 48.6708 138.222C49.2661 138.734 50.0285 139.01 50.8136 138.997C51.5986 138.985 52.3518 138.685 52.9303 138.154H52.9303Z" fill="#FFB6B6"/>
<path d="M64.4004 80.877C64.4004 80.877 56.9882 83.1341 56.3361 87.0749C55.684 91.0157 54.5447 94.4923 54.8392 96.1044C55.1336 97.7165 51.4567 108.506 52.1734 109.747C52.89 110.988 50.9624 111.256 51.6279 113.291C52.2935 115.325 52.6646 115.747 52.2424 116.118C51.8202 116.489 49.999 124.557 49.999 124.557L55.5522 126.17L65.7801 100.827L64.4004 80.877Z" fill="#3F3D56"/>
<path d="M92.864 207.308L97.8078 207.307L100.16 188.238L92.8633 188.238L92.864 207.308Z" fill="#FFB6B6"/>
<path d="M99.4531 207.753V204.401L98.1533 204.48L92.8626 204.794L91.6381 204.869L90.702 216.094L90.6519 216.696H94.1623L94.2751 216.098L94.785 213.382L96.1014 216.098L96.3898 216.696H105.697C106.25 216.692 106.781 216.47 107.172 216.078C107.563 215.686 107.784 215.156 107.786 214.602C108.179 212.767 100.439 208.801 99.4531 207.753Z" fill="#2F2E41"/>
<path d="M34.9434 201.926L39.2435 204.365L50.6998 188.94L44.3535 185.34L34.9434 201.926Z" fill="#FFB6B6"/>
<path d="M40.4579 205.563L42.1087 202.65L40.9469 202.077L36.1869 199.741L35.0836 199.198L29.6633 207.134L28.3887 208.998L29.8305 209.817L31.4394 210.732L33.6209 208.158L33.3785 211.831L40.9803 216.148H40.9845L41.4735 216.424C41.9563 216.697 42.5276 216.767 43.0619 216.619C43.5963 216.471 44.0501 216.117 44.3236 215.634C45.569 214.23 40.7964 206.967 40.4579 205.563Z" fill="#2F2E41"/>
<path d="M68.3296 113.7C57.3721 114.093 53.5212 158.769 56.8673 159.579L41.252 188.681L63.4782 198.644L78.0923 147.9L80.528 166.574L77.2804 196.208L91.6471 199.682L101.584 198.973C99.0021 163.649 92.5551 126.394 87.2123 111.983L68.3296 113.7Z" fill="#2F2E41"/>
<path d="M63.2996 116.832L63.2275 117.103C70.2313 121 75.0139 120.166 82.6699 117.808L88.2591 116.633C89.479 115.042 88.4848 113.486 87.1331 111.971L90.4838 84.4122C90.4782 83.5262 90.2905 82.6507 89.9325 81.8403C89.5744 81.0298 89.0535 80.3016 88.4022 79.7008C87.7509 79.1001 86.9831 78.6396 86.1464 78.348C85.3097 78.0564 84.422 77.94 83.5384 78.0058L78.5053 74.2773L71.3402 74.5245L66.5474 79.8185L63.6841 80.8417L61.4594 81.6347C61.0096 82.0398 60.5187 82.5068 60.0483 83.0217L63.5674 103.964L65.0643 110.227C63.0577 112.514 61.9522 114.748 63.2996 116.832Z" fill="#3F3D56"/>
<path d="M22.651 213.237C20.0767 212.931 17.6033 212.053 15.4115 210.668C13.2198 209.283 11.365 207.427 9.98267 205.233C8.1851 202.318 7.25756 198.856 6.36053 195.508C6.09935 194.534 5.82946 193.526 5.54363 192.555C5.22047 191.494 5.22249 190.36 5.54944 189.3C5.87639 188.239 6.51329 187.301 7.37809 186.607C8.21411 185.906 9.24083 185.471 10.3259 185.359C11.411 185.247 12.5048 185.463 13.4663 185.978L13.6762 186.09L14.044 194.356C14.589 193.249 15.7849 190.747 16.7324 188.249L16.8119 188.039L16.9934 188.171C18.8983 189.539 20.6233 191.142 22.1277 192.942C24.784 196.171 26.7052 199.94 27.7578 203.987C28.8104 208.033 28.9692 212.261 28.223 216.375L28.1772 216.62L22.651 213.237Z" fill="#F2F2F2"/>
<path d="M1.80828e-06 216.56C-0.000158203 216.614 0.0103027 216.667 0.030779 216.716C0.0512553 216.766 0.0813461 216.811 0.119318 216.849C0.157289 216.887 0.202392 216.917 0.252034 216.938C0.301677 216.958 0.354878 216.969 0.408576 216.968H289.585C289.693 216.968 289.797 216.925 289.874 216.849C289.95 216.772 289.993 216.668 289.993 216.56C289.993 216.452 289.95 216.348 289.874 216.271C289.797 216.194 289.693 216.151 289.585 216.151H0.408555C0.354859 216.151 0.301663 216.162 0.252024 216.182C0.202384 216.203 0.157282 216.233 0.119313 216.271C0.0813434 216.309 0.0512547 216.354 0.030779 216.403C0.0103033 216.453 -0.000156368 216.506 1.80828e-06 216.56V216.56Z" fill="#CCCCCC"/>
<path d="M85.1128 69.576L85.1199 69.5742C85.4946 69.475 85.8146 69.231 86.0094 68.8959C86.2042 68.5608 86.258 68.1621 86.1588 67.7874L84.0772 59.9013C83.7056 58.488 83.0537 57.164 82.1601 56.0077C80.4127 53.7524 77.8623 52.2584 75.0405 51.837C73.5841 51.6212 72.0991 51.7025 70.675 52.0761C64.8487 53.6042 63.2214 55.5312 62.8926 65.3924C62.5638 75.2536 64.9774 73.2905 64.9774 73.2905C65.0274 73.4806 65.1151 73.6587 65.2354 73.8142C65.4708 74.1173 65.8141 74.3178 66.1938 74.3738C66.3885 74.4023 66.587 74.3913 66.7774 74.3416C74.0532 73.5927 81.4217 72.9107 85.114 69.5757L85.1128 69.576Z" fill="#2F2E41"/>
<path d="M68.0064 61.2503C67.6243 62.7927 67.7078 64.4139 68.2465 65.9089C68.7851 67.4039 69.7548 68.7057 71.0329 69.65C72.311 70.5943 73.8402 71.1386 75.4275 71.2143C77.0148 71.29 78.5889 70.8936 79.9511 70.0751C80.8539 69.5365 81.6409 68.8241 82.2664 67.9791C82.8919 67.1342 83.3436 66.1735 83.5952 65.1528C83.9757 63.6114 83.8913 61.9918 83.3527 60.4983C82.8141 59.0047 81.8453 57.7041 80.5685 56.7604C79.2917 55.8167 77.7641 55.2722 76.1783 55.1954C74.5925 55.1187 73.0194 55.5132 71.6575 56.3292C70.7535 56.8671 69.9653 57.579 69.3385 58.4238C68.7118 59.2686 68.259 60.2294 68.0065 61.2506L68.0064 61.2503Z" fill="#FFB6B6"/>
<path d="M86.7468 59.8829C86.4529 58.7652 85.9372 57.718 85.2306 56.8035C84.2266 54.3008 82.6519 52.278 79.6007 53.506C78.4562 53.3369 77.2895 53.3997 76.1698 53.6907L74.5894 54.0994C74.5716 54.104 74.5539 54.1086 74.5362 54.1133C72.3292 54.6973 70.4446 56.1341 69.297 58.1077C68.1494 60.0812 67.8328 62.4298 68.4168 64.6367L68.4585 64.7947L71.8011 63.9268L72.1 60.4454L73.169 63.5723L74.8956 63.1247L75.0461 61.3684L75.5854 62.9448C78.8592 64.2167 82.6536 62.9548 86.7871 60.0415L86.7468 59.8829Z" fill="#2F2E41"/>
<path d="M79.0792 70.9031C79.1988 71.1443 79.2483 71.4141 79.2221 71.682C79.2096 71.8189 79.178 71.9533 79.1282 72.0814C79.0854 72.1906 79.0299 72.2944 78.9628 72.3906C78.7637 72.6747 78.4699 72.8786 78.134 72.9657C78.1131 72.9711 78.092 72.976 78.0709 72.9805C78.0497 72.9851 78.0284 72.9891 78.007 72.9927C77.9855 72.9965 77.9638 72.9997 77.9422 73.0023C77.9205 73.0049 77.8986 73.0071 77.8765 73.009L76.6345 73.1064L74.0817 70.0499L74.9249 73.2442L69.2808 73.6965L65.7026 60.1413L74.7469 57.8003L74.5921 58.1186C74.0806 59.1845 73.8731 60.3708 73.9924 61.547C74.119 62.7369 74.4486 63.8962 74.9668 64.9747C75.4824 66.0683 76.1019 67.1099 76.8166 68.0851C77.4448 68.9504 78.1223 69.7787 78.8458 70.566C78.939 70.6669 79.0175 70.7804 79.0792 70.9031V70.9031Z" fill="#2F2E41"/>
</g>
<defs>
<clipPath id="clip0_3335_4744">
<rect width="289.993" height="216.968" fill="white"/>
</clipPath>
</defs>
</svg>
